<?xml version="1.0" encoding="utf-8" ?>
<svg baseProfile="full" height="200mm" version="1.1" viewBox="0,0,200,200" width="200mm" xmlns="http://www.w3.org/2000/svg" xmlns:ev="http://www.w3.org/2001/xml-events" xmlns:xlink="http://www.w3.org/1999/xlink"><defs /><rect fill="#1a1a1a" height="200" width="200" x="0" y="0" /><text alignment-baseline="middle" fill="#e1ed5e" style="dominant-baseline: central; font-size:9.0px; font-family:Arial;" text-anchor="middle" x="100.0" y="100.0">2022</text><line stroke="#e1ed5e" stroke-width="0.3" x1="100.0" x2="100.0" y1="15.0" y2="10.0" /><path d="M 100.0 14.0 a86.0,86.0 0 0,1 42.46469731375804,11.215312516191453" fill="none" id="id25" stroke="none" /><text fill="#e1ed5e" style="font-size:6.75px; font-family:Arial;" text-anchor="middle"><textPath startOffset="22.20632615414155" xlink:href="#id25">January</textPath></text><line stroke="#e1ed5e" stroke-width="0.3" x1="143.23703022742887" x2="145.7803849466894" y1="26.81831364943548" y2="22.513508569990506" /><path d="M 143.74570117128098 25.957352633546492 a86.0,86.0 0 0,1 28.547481713284135,27.462654790039103" fill="none" id="id26" stroke="none" /><text fill="#e1ed5e" style="font-size:6.75px; font-family:Arial;" text-anchor="middle"><textPath startOffset="19.985693538727396" xlink:href="#id26">February</textPath></text><line stroke="#e1ed5e" stroke-width="0.3" x1="172.23445277983987" x2="176.4835382374775" y1="55.19839476539836" y2="52.563006222186495" /><path d="M 173.08426987136738 54.67131705675599 a86.0,86.0 0 0,1 12.851231095245387,41.99856678651699" fill="none" id="id27" stroke="none" /><text fill="#e1ed5e" style="font-size:6.75px; font-family:Arial;" text-anchor="middle"><textPath startOffset="22.20632615414155" xlink:href="#id27">March</textPath></text><path d="M 119.85752413597 93.16781622104841 l 9.835672066635137 -3.3840633247438454 a31.40155419099776,31.40155419099776 0 0,0 0.1714565325386771,0.5126332088912652 l -9.892465892945584 3.214257012930266" fill="#ff1402" stroke="none" /><path d="M 120.08093135843002 93.85539295169968 l 10.007619474479169 -3.0622528438541448 a31.465650482682264,31.465650482682264 0 0,0 0.15402301491257406,0.519289037342978 l -10.058848386503444 2.8895344197646367" fill="#ff1502" stroke="none" /><path d="M 120.87857604477298 97.74499172005257 l 16.042156676013906 -1.732646711875825 a37.13545336970584,37.13545336970584 0 0,0 0.06317072064092664,0.6361205359746493 l -16.06960452233706 1.4562506451967407" fill="#ff710a" stroke="none" /><line stroke="#e1ed5e" stroke-width="0.3" x1="184.98032266829074" x2="189.97916517819016" y1="98.17113171792111" y2="98.06355123074" /><path d="M 185.9800911702706 98.14961562048488 a86.0,86.0 0 0,1 -9.607161424134198,41.387399972396054" fill="none" id="id28" stroke="none" /><text fill="#e1ed5e" style="font-size:6.75px; font-family:Arial;" text-anchor="middle"><textPath startOffset="21.466115282336823" xlink:href="#id28">April</textPath></text><line stroke="#e1ed5e" stroke-width="0.3" x1="174.80103733775053" x2="179.2010983576182" y1="140.37084112569926" y2="142.7455964860345" /><path d="M 175.68104954172406 140.8457921977663 a86.0,86.0 0 0,1 -30.038265399797805,32.042727171017184" fill="none" id="id29" stroke="none" /><text fill="#e1ed5e" style="font-size:6.75px; font-family:Arial;" text-anchor="middle"><textPath startOffset="22.206326154141568" xlink:href="#id29">May</textPath></text><path d="M 117.14729908036423 112.12312394758627 l 10.926249807591478 7.724848098754249 a34.38118877404844,34.38118877404844 0 0,0 -0.34580961101086216,0.4802993043307921 l -10.791660404205015 -7.911781008536172" fill="#ff4506" stroke="none" /><path d="M 115.56566222782051 114.09645910891815 l 15.678260130714854 14.198429183218185 a42.15190847174847,42.15190847174847 0 0,0 -0.49167911380906404,0.533620570235396 l -15.431534608910066 -14.466201008254915" fill="#ffbd11" stroke="none" /><path d="M 115.32070863581623 114.36230785411682 l 15.514460523800574 14.543939417557828 a42.26557450731484,42.26557450731484 0 0,0 -0.5021420924656811,0.5264939764126366 l -15.261811879955928 -14.808840510552972" fill="#ffbf11" stroke="none" /><path d="M 113.20401910651253 116.32954008644616 l 9.813074582334528 12.135925695872556 a36.60695759122193,36.60695759122193 0 0,0 -0.4933964314575739,0.39198396541516267 l -9.602720658159603 -12.303043575292845" fill="#ff6809" stroke="none" /><path d="M 111.7513745106137 117.40417183066458 l 11.924496959658477 17.66057186694964 a42.30937414399112,42.30937414399112 0 0,0 -0.6070897576219856,0.4023459877591825 l -11.618732503296528 -17.86321587580014" fill="#ffbf11" stroke="none" /><line stroke="#e1ed5e" stroke-width="0.3" x1="143.8653032363475" x2="146.44561519142675" y1="172.8068346515853" y2="177.08958963109032" /><path d="M 144.38136562736335 173.6633856474863 a86.0,86.0 0 0,1 -40.68145358897372,12.25698825130547" fill="none" id="id30" stroke="none" /><text fill="#e1ed5e" style="font-size:6.75px; font-family:Arial;" text-anchor="middle"><textPath startOffset="21.466115282336833" xlink:href="#id30">June</textPath></text><path d="M 110.5260780823613 118.17145234162733 l 12.624102342792543 21.793328178164167 a46.18565292070993,46.18565292070993 0 0,0 -0.6913579498178423,0.3925710872407045 l -12.247095626053502 -22.0074024311995" fill="#fff717" stroke="none" /><path d="M 109.89434966115114 118.52300852407294 l 11.317154942580977 21.186613031552472 a45.0197953310001,45.0197953310001 0 0,0 -0.6866785719483108,0.3592377744097911 l -10.95078546810617 -21.37828022490698" fill="#ffe715" stroke="none" /><path d="M 109.57404056367764 118.69057910512821 l 13.603102495578625 26.556171511677338 a50.8374704501377,50.8374704501377 0 0,0 -0.7822823771073872,0.39225262379739834 l -13.143966210788477 -26.78639197638404" fill="#c7ff1e" stroke="none" /><path d="M 108.59647513512805 119.15986991738527 l 12.25609268885338 27.316445161840125 a50.939939617133234,50.939939617133234 0 0,0 -0.8031028972102491,0.3520567091183878 l -11.784069116985378 -27.523366424252966" fill="#c6ff1e" stroke="none" /><path d="M 105.53697534728816 120.25689768951611 l 3.6000443669978486 13.17067999150674 a34.6538320951676,34.6538320951676 0 0,0 -0.5767545481174642,0.152326118198337 l -3.372799376068887 -13.23069745900866" fill="#ff4906" stroke="none" /><path d="M 103.7750983002368 120.6578951692458 l 3.8060785236364256 20.827423524909793 a42.17233582801039,42.17233582801039 0 0,0 -0.715224799074858,0.12435099912190015 l -3.4470047530895176 -20.8898531025527" fill="#ffbd11" stroke="none" /><path d="M 103.41894727170886 120.7198165907248 l 3.551684602057961 21.524243486200483 a42.81530474611206,42.81530474611206 0 0,0 -0.7281948259039653,0.11372905572322033 l -3.1806539125454787 -21.58219084927081" fill="#ffc712" stroke="none" /><path d="M 103.06178313531738 120.77559828337769 l 3.080089592627979 20.89981596512328 a42.125559383709515,42.125559383709515 0 0,0 -0.7182837331222715,0.09954758039446465 l -2.719877268318877 -20.949738111010348" fill="#ffbd11" stroke="none" /><path d="M 102.70371172650421 120.8252237178851 l 3.9024692475234546 30.058602156126035 a51.31086982928947,51.31086982928947 0 0,0 -0.8768601943386807,0.10617555805114845 l -3.3844816301333935 -30.121323242902534" fill="#c1ff1e" stroke="none" /><path d="M 102.34483914955558 120.86867818915974 l 1.0271425067066424 9.141397366608414 a30.198922085946748,30.198922085946748 0 0,0 -0.5170737142739804,0.053596804671361 l -0.8696361958270592 -9.157723539735533" fill="#ff0000" stroke="none" /><path d="M 100.90346689309514 120.98055641714683 l 0.9104481693349185 21.14267753207836 a42.16227135953266,42.16227135953266 0 0,0 -0.7253509794938019,0.02498255434954275 l -0.5463768381664643 -21.155216884853996" fill="#ffbd11" stroke="none" /><line stroke="#e1ed5e" stroke-width="0.3" x1="102.19456741930631" x2="102.32365962044197" y1="184.97166512339345" y2="189.96999836594603" /><path d="M 102.22038585953345 185.97133177190398 a86.0,86.0 0 0,1 -42.740103519485714,-10.115201625700543" fill="none" id="id31" stroke="none" /><text fill="#e1ed5e" style="font-size:6.75px; font-family:Arial;" text-anchor="middle"><textPath startOffset="22.20632615414155" xlink:href="#id31">July</textPath></text><path d="M 100.54218724476979 120.99299961872073 l 0.32699586307264283 12.660983995892185 a33.66520596116402,33.66520596116402 0 0,0 -0.5794267848776347,0.009975357571195846 l -0.10900938830234026 -12.66473683074254" fill="#ff3905" stroke="none" /><path d="M 100.18074693466247 120.99922214144158 l 0.11238091684292478 13.056441823760318 a34.05692546381835,34.05692546381835 0 0,0 -0.5862557030107515,0.0 l 0.1123809168429158 -13.056441823760318" fill="#ff4006" stroke="none" /><path d="M 98.73552117531835 120.96189622390904 l -0.9406911027261966 15.594305645304546 a36.62265240955983,36.62265240955983 0 0,0 -0.628928202758882,-0.04337457112525767 l 1.2089820662640087 -15.575802729663003" fill="#ff6909" stroke="none" /><path d="M 98.37488393609728 120.93702456842531 l -1.6335237590542322 21.045344290235423 a42.10864553129687,42.10864553129687 0 0,0 -0.7221746647763717,-0.062312268829417566 l 1.9955427415721456 -21.014107769127342" fill="#ffbc11" stroke="none" /><path d="M 98.01472825383883 120.90594882070398 l -2.9749174026358163 31.32743468776327 a52.46836979680674,52.46836979680674 0 0,0 -0.8983769280083482,-0.09312044182969885 l 3.513726927249758 -31.271584877477807" fill="#b2ff20" stroke="none" /><path d="M 96.93821686468263 120.77559828337769 l -3.08851259083931 20.95696985860516 a42.183330608718215,42.183330608718215 0 0,0 -0.7174463260466308,-0.11205036109956883 l 3.4487947804944583 -20.900701190158482" fill="#ffbd11" stroke="none" /><path d="M 96.22490169976321 120.6578951692458 l -3.7962643142910806 20.77371872262368 a42.117741647975656,42.117741647975656 0 0,0 -0.7120553469587555,-0.13646710195065098 l 4.153287275821531 -20.70529442232456" fill="#ffbd11" stroke="none" /><path d="M 95.86986931433489 120.58985236759428 l -6.07959046415185 30.308452598555576 a51.912193696512325,51.912193696512325 0 0,0 -0.8746179707503632,-0.18328469952198748 l 6.6003998963316 -30.19931191830705" fill="#b9ff1f" stroke="none" /><path d="M 95.51606077576429 120.51570834832081 l -4.5180043650308 20.671569179265862 a42.15954006531361,42.15954006531361 0 0,0 -0.7076375420898744,-0.1610560007096116 l 4.873162056513537 -20.590736444978564" fill="#ffbd11" stroke="none" /><path d="M 95.16358092515715 120.4354850818985 l -6.923934729691958 29.25593557693436 a51.064108811384514,51.064108811384514 0 0,0 -0.8536136983691339,-0.20979747874103388 l 7.426501712804302 -29.132416839879298" fill="#c4ff1e" stroke="none" /><path d="M 94.46302465271185 120.25689768951611 l -7.8647870556970245 28.7731435927584 a50.82865514301564,50.82865514301564 0 0,0 -0.8419859472102028,-0.23795363905190664 l 8.358904171011842 -28.633501160367974" fill="#c7ff1e" stroke="none" /><path d="M 93.76903079525671 120.05430185196036 l -6.266086917188949 20.16732780066822 a42.11835589891817,42.11835589891817 0 0,0 -0.6904976626600288,-0.2210755463862431 l 6.6123059249399185 -20.05647940762227" fill="#ffbd11" stroke="none" /><path d="M 93.42475214034765 119.94407469862007 l -4.488087822732411 13.613290434236948 a35.33403672213261,35.33403672213261 0 0,0 -0.5759957251187393,-0.1954090231305008 l 4.721753280788377 -13.534018424208323" fill="#ff5407" stroke="none" /><path d="M 92.7421414339146 119.70592522655815 l -5.277162494689598 14.328106366619252 a36.26902341502277,36.26902341502277 0 0,0 -0.5839827085981799,-0.2208122909778169 l 5.523015424048061 -14.235145825534802" fill="#ff6309" stroke="none" /><path d="M 92.40401165467489 119.57807347666478 l -10.917076210424188 28.137921029009394 a51.18153662123549,51.18153662123549 0 0,0 -0.8186094974697528,-0.3257416132178375 l 11.399806783935798 -27.94583257138549" fill="#c3ff1e" stroke="none" /><path d="M 92.06813273071674 119.44442032107085 l -7.965931654756508 19.527926790182594 a42.09018709852956,42.09018709852956 0 0,0 -0.6684894605929194,-0.27942864874394185 l 8.30089257484689 -19.38791309841868" fill="#ffbc11" stroke="none" /><path d="M 91.7346041902142 119.30500536409082 l -12.114216772329486 28.294473144854816 a51.778750113542614,51.778750113542614 0 0,0 -0.816327316888428,-0.3578539060754257 l 12.599464763875657 -28.08175468548494" fill="#bbff1f" stroke="none" /><path d="M 91.40352486487194 119.15986991738527 l -8.66100818688954 19.30370152949213 a42.157645321563656,42.157645321563656 0 0,0 -0.6595302719628372,-0.3027579999410485 l 8.992006454619796 -19.151756459217008" fill="#ffbd11" stroke="none" /><path d="M 91.07499286063937 119.00905698771935 l -9.11608443605982 19.416025762679276 a42.44959327964979,42.44959327964979 0 0,0 -0.658751652303806,-0.3162408253778155 l 9.448948756363869 -19.256230660801897" fill="#ffc112" stroke="none" /><path d="M 90.7491055286396 118.85261126421891 l -18.526912339166408 37.75642207765899 a63.057031385126216,63.057031385126216 0 0,0 -0.9703158707251935,-0.48653652100866196 l 19.17408211757436 -37.43191771574102" fill="#32ff2f" stroke="none" /><path d="M 90.10565033884886 118.52300852407294 l -14.249673466673036 26.67652065347893 a51.24384149016612,51.24384149016612 0 0,0 -0.7744583962475245,-0.42229646712447705 l 14.706754674789202 -26.42728353459469" fill="#c2ff1e" stroke="none" /><line stroke="#e1ed5e" stroke-width="0.3" x1="58.666819895761336" x2="56.23545636021788" y1="174.27360380694188" y2="178.64263932499728" /><path d="M 58.180547188652646 175.14741091055294 a86.0,86.0 0 0,1 -31.652253787137756,-30.449443065178592" fill="none" id="id32" stroke="none" /><text fill="#e1ed5e" style="font-size:6.75px; font-family:Arial;" text-anchor="middle"><textPath startOffset="22.20632615414155" xlink:href="#id32">August</textPath></text><path d="M 89.7882731507175 118.34994917583269 l -14.650596359147192 26.326369922916594 a51.12835420325685,51.12835420325685 0 0,0 -0.7653457709087175,-0.43458330301961956 l 15.101590896977116 -26.07028345410234" fill="#c3ff1e" stroke="none" /><path d="M 88.8546689885994 117.79835938074946 l -11.194389661366294 17.876702812804613 a42.09243616436567,42.09243616436567 0 0,0 -0.6107776807362103,-0.38982721379162943 l 11.500449144149428 -17.681361170189177" fill="#ffbc11" stroke="none" /><path d="M 87.07902340077011 116.55440617244103 l -18.12191159708979 23.21786460143999 a50.452893178489916,50.452893178489916 0 0,0 -0.6800149230906232,-0.5402449817221081 l 18.518884012897775 -22.902485705712753" fill="#ccff1d" stroke="none" /><path d="M 86.51685102203217 116.09983520530335 l -13.558483001997693 16.189789367659255 a42.117332717098364,42.117332717098364 0 0,0 -0.5518062983316382,-0.47026129862021304 l 13.835154776906387 -15.95400367881609" fill="#ffbd11" stroke="none" /><path d="M 86.24171649860922 115.8653595955263 l -14.225348109702852 16.403954978043714 a42.71290555784535,42.71290555784535 0 0,0 -0.5513171276682235,-0.48647326462392354 l 14.505607590277663 -16.1566585716475" fill="#ffc512" stroke="none" /><path d="M 85.44109423537348 115.13401014063109 l -14.604579180427036 15.181487742935634 a42.06588007006277,42.06588007006277 0 0,0 -0.5175105771168974,-0.5064930212469951 l 14.863739709919727 -14.92784461876607" fill="#ffbc11" stroke="none" /><path d="M 85.18274418774928 114.88116024355367 l -15.75177392617366 15.819708783175473 a43.32446119855446,43.32446119855446 0 0,0 -0.5239358612281282,-0.5307442612616181 l 16.021750412457322 -15.54622402793319" fill="#ffce13" stroke="none" /><path d="M 84.43433777217949 114.09645910891817 l -22.270393225926497 20.168347665138683 a51.0455098472184,51.0455098472184 0 0,0 -0.5842065027127402,-0.656362198928383 l 22.614258578287576 -19.782011296469435" fill="#c4ff1e" stroke="none" /><path d="M 84.19399662182784 113.82643327865904 l -16.717395196492078 14.623680872830636 a43.21088346793277,43.21088346793277 0 0,0 -0.48490325510869337,-0.5640520344772764 l 16.966640961171553 -14.33375173919183" fill="#ffcd13" stroke="none" /><path d="M 83.72743513129214 113.27417163493432 l -32.54077571694347 26.54479152399965 a62.994381068340815,62.994381068340815 0 0,0 -0.6781857714639158,-0.8461410257306458 l 32.99287940046224 -25.980722664690745" fill="#33ff2f" stroke="none" /><path d="M 83.50135304334701 112.99209946851258 l -26.311037714095956 20.719009261755083 a54.4895215012289,54.4895215012289 0 0,0 -0.5739386042438721,-0.7418930136876388 l 26.6637831355579 -20.263038253954193" fill="#98ff23" stroke="none" /><path d="M 83.28015986056508 112.70617746262583 l -17.97891568378844 13.66300702391306 a43.58138990629832,43.58138990629832 0 0,0 -0.44876116900026447,-0.6011889213779843 l 18.21143811948379 -13.351505223025768" fill="#ffd213" stroke="none" /><line stroke="#e1ed5e" stroke-width="0.3" x1="26.63291911575756" x2="22.317208475507996" y1="142.92168965132927" y2="145.44649492493687" /><path d="M 25.769776987707644 143.4266507060508 a86.0,86.0 0 0,1 -11.730757126820373,-40.83630448921669" fill="none" id="id33" stroke="none" /><text fill="#e1ed5e" style="font-size:6.75px; font-family:Arial;" text-anchor="middle"><textPath startOffset="21.46611528233685" xlink:href="#id33">September</textPath></text><path d="M 80.87730276802145 108.67885076344099 l -15.432350069983793 7.003983881656104 a37.94736613450678,37.94736613450678 0 0,0 -0.26483451514182277,-0.5971319173746906 l 15.550625669856895 -6.737303627788718" fill="#ff7d0b" stroke="none" /><path d="M 80.0844068197444 106.66101706037122 l -21.58835830215943 7.220494094981566 a43.76384741554203,43.76384741554203 0 0,0 -0.232798137221835,-0.7164789944127103 l 21.709448690397515 -6.847816200591052" fill="#ffd513" stroke="none" /><path d="M 79.76711848015287 105.62410040840567 l -21.62762416061131 6.011794699396705 a43.44762353435999,43.44762353435999 0 0,0 -0.1940907210541278,-0.7222837765629004 l 21.727902958007217 -5.638619989658266" fill="#ffd013" stroke="none" /><path d="M 79.58551787078972 104.9243191809786 l -28.955203954215147 6.984486077992167 a50.78568249686186,50.78568249686186 0 0,0 -0.19767585457733328,-0.85158240786138 l 29.071140374723036 -6.4850350127822125" fill="#c8ff1d" stroke="none" /><path d="M 79.35854240842038 103.8639653848113 l -24.836962378042426 4.649340409553518 a46.26838076355907,46.26838076355907 0 0,0 -0.13980444603108894,-0.7840975784612737 l 24.913313266412704 -4.22112408035903" fill="#fff817" stroke="none" /><path d="M 79.18660465613746 102.79330883721812 l -22.36615862397187 3.001700948201408 a43.56668474045544,43.56668474045544 0 0,0 -0.09335405049708892,-0.7441236343313831 l 22.41451418371581 -2.616259559582616" fill="#ffd213" stroke="none" /><path d="M 79.1416061653843 102.43462659150553 l -28.619414419131072 3.3405058860524255 a49.813709606170434,49.813709606170434 0 0,0 -0.09207874098126093,-0.8525347834771912 l 28.672675461613384 -2.847374780690452" fill="#d5ff1c" stroke="none" /><line stroke="#e1ed5e" stroke-width="0.3" x1="15.007084014347285" x2="10.007500721073583" y1="101.09737516637583" y2="101.16192664675087" /><path d="M 14.007167355692545 101.11028546245083 a86.0,86.0 0 0,1 10.666146001902534,-42.60595125391555" fill="none" id="id34" stroke="none" /><text fill="#e1ed5e" style="font-size:6.75px; font-family:Arial;" text-anchor="middle"><textPath startOffset="22.20632615414155" xlink:href="#id34">October</textPath></text><path d="M 79.00175016825051 100.2711162175752 l -48.062462062182874 0.62055233298294 a69.06646798628685,69.06646798628685 0 0,0 -0.005116518640510467,-1.1888987405234277 l 48.06602287811289 0.20685588574416308" fill="#38ff7d" stroke="none" /><path d="M 79.03285615573316 98.82574320788736 l -62.90143153280056 -3.522770376337934 a84.0,84.0 0 0,0 0.09327763598234728,-1.442963742987953 l 62.831473305813795 4.604993183578899" fill="#4dd2ff" stroke="none" /><path d="M 79.26566170972629 96.67025291283419 l -21.01106329182792 -3.3741866181009894 a42.28027058068037,42.28027058068037 0 0,0 0.121582230228027,-0.7175852051812708 l 20.94986920007967 3.7353576115980878" fill="#ffbf11" stroke="none" /><path d="M 80.38941819471856 92.48833698450439 l -19.69098659538545 -7.542461371918186 a42.08610150422613,42.08610150422613 0 0,0 0.2649549561520265,-0.6742814633883233 l 19.558238089351732 7.880291840202273" fill="#ffbc11" stroke="none" /><path d="M 81.6062741919709 89.86733742301443 l -19.66782651844591 -10.83453411310011 a43.454632693669566,43.454632693669566 0 0,0 0.3665550539108421,-0.6520605395953482 l 19.478413823242636 11.171478162630242" fill="#ffd013" stroke="none" /><line stroke="#e1ed5e" stroke-width="0.3" x1="26.266209847984243" x2="21.928928074336255" y1="57.711370442889674" y2="55.22380399835377" /><path d="M 25.398753493254645 57.213857153982495 a86.0,86.0 0 0,1 29.58750427330803,-30.492523968695096" fill="none" id="id35" stroke="none" /><text fill="#e1ed5e" style="font-size:6.75px; font-family:Arial;" text-anchor="middle"><textPath startOffset="21.46611528233685" xlink:href="#id35">November</textPath></text><path d="M 81.78341655067845 89.55222093294921 l -19.69128753455012 -11.293567878910524 a43.700032603586465,43.700032603586465 0 0,0 0.3798580084340993,-0.649300469196435 l 19.493969851645698 11.630847760460851" fill="#ffd413" stroke="none" /><path d="M 81.96595687620814 89.24020034530311 l -19.26339691036901 -11.493279127797535 a43.431538637282124,43.431538637282124 0 0,0 0.388576188860337,-0.6387170852568963 l 19.062704923222455 11.823163986261505" fill="#ffd013" stroke="none" /><path d="M 82.34701348167596 88.62581576622439 l -18.134096933356176 -11.684173622352061 a42.5723291469796,42.5723291469796 0 0,0 0.4022139687338492,-0.6125994686959186 l 17.930286329264405 11.994591155025645" fill="#ffc312" stroke="none" /><path d="M 83.17141714833178 87.43820079747576 l -18.019721817363443 -13.450932211598886 a43.486394814113545,43.486394814113545 0 0,0 0.45292956279810354,-0.5960022128357264 l 17.785516314341233 13.75911920031564" fill="#ffd113" stroke="none" /><path d="M 83.6137871275137 86.86637796730984 l -17.616137760854777 -14.119412266109682 a43.576228922248774,43.576228922248774 0 0,0 0.4741540008741981,-0.58125674047162 l 17.370485267904186 14.420553176189385" fill="#ffd213" stroke="none" /><path d="M 84.31358615837235 86.03803664274999 l -23.001758526190276 -20.473112142606755 a51.79333070814067,51.79333070814067 0 0,0 0.5984752890479341,-0.6608513619653527 l 22.645939596526297 20.866016291841664" fill="#bbff1f" stroke="none" /><path d="M 84.5562425177563 85.77008943001954 l -15.83685887749076 -14.592115020920048 a42.53452855043078,42.53452855043078 0 0,0 0.5007583524879573,-0.5341740960677301 l 15.583333203032346 14.862558533865828" fill="#ffc312" stroke="none" /><path d="M 85.05521093208273 85.24692304244772 l -22.857210918346546 -22.563998071895544 a53.118314089539105,53.118314089539105 0 0,0 0.6479528773908627,-0.6451703618166001 l 22.465422240788367 22.954104284362252" fill="#a9ff21" stroke="none" /><path d="M 85.57189188830299 84.74124197986013 l -14.935151683117043 -15.794992923709332 a42.73799800482422,42.73799800482422 0 0,0 0.5388897587651724,-0.5008393004446717 l 14.661054040557014 16.04973681022865" fill="#ffc612" stroke="none" /><path d="M 86.37877921826538 84.01681056812374 l -20.68120491513258 -24.267400193767337 a52.88446249987857,52.88446249987857 0 0,0 0.6979300092290434,-0.584496311336769 l 20.260417368944424 24.61979766249792" fill="#acff20" stroke="none" /><path d="M 87.80319425747018 82.90503203632743 l -18.35942670499405 -25.732459627431044 a52.61056828678373,52.61056828678373 0 0,0 0.7417309999297182,-0.5196299663562659 l 17.91376456548067 26.044674436551254" fill="#b0ff20" stroke="none" /><line stroke="#e1ed5e" stroke-width="0.3" x1="56.762969772571076" x2="54.21961505331055" y1="26.818313649435495" y2="22.513508569990535" /><path d="M 56.25429882871897 25.957352633546506 a86.0,86.0 0 0,1 42.265352541879196,-11.944610805530505" fill="none" id="id36" stroke="none" /><text fill="#e1ed5e" style="font-size:6.75px; font-family:Arial;" text-anchor="middle"><textPath startOffset="22.20632615414155" xlink:href="#id36">December</textPath></text><path d="M 89.94658935756843 81.56283822128135 l -9.360263862599313 -17.165985282433176 a40.55212495597844,40.55212495597844 0 0,0 0.6157259960008026,-0.32889950312202076 l 9.063392820070206 17.324563512056947" fill="#ffa50f" stroke="none" /><path d="M 90.26544431104013 81.39251694778311 l -15.514679786061183 -29.656118923549098 a54.469249744679104,54.469249744679104 0 0,0 0.8345195168694719,-0.4274733094544302 l 15.001899781602948 29.918784758316033" fill="#98ff23" stroke="none" /><path d="M 90.91171255644093 81.06846463323043 l -8.04630517041669 -16.761013761016216 a39.59232662128248,39.59232662128248 0 0,0 0.616927235039342,-0.2896556089420583 l 7.7565997240777405 16.89703435259828" fill="#ff970d" stroke="none" /><path d="M 91.56875222667455 80.76684994638697 l -10.386383772477865 -23.693157048768327 a46.86972475320895,46.86972475320895 0 0,0 0.7416938477804271,-0.31755459819718357 l 9.977006166907131 23.868431174928297" fill="#fdff18" stroke="none" /><path d="M 91.90106846888425 80.62456947434976 l -11.56798080141515 -27.674589849137405 a50.99501797198809,50.99501797198809 0 0,0 0.8128026231359451,-0.33156259823561046 l 11.089894308690823 27.869613333556593" fill="#c5ff1e" stroke="none" /></svg>